<svg width="19" height="20" viewBox="0 0 19 20" fill="none" xmlns="http://www.w3.org/2000/svg">
<path fill-rule="evenodd" clip-rule="evenodd" d="M18.5001 10.2088C18.5001 9.55706 18.4416 8.93036 18.333 8.32874H9.67627V11.8842H14.623C14.4099 13.0331 13.7623 14.0066 12.7889 14.6584V16.9646H15.7594C17.4974 15.3644 18.5001 13.0081 18.5001 10.2088Z" fill="#4285F4"/>
<path fill-rule="evenodd" clip-rule="evenodd" d="M9.67629 19.1915C12.158 19.1915 14.2386 18.3685 15.7594 16.9647L12.7889 14.6584C11.9658 15.2099 10.913 15.5358 9.67629 15.5358C7.28231 15.5358 5.256 13.9189 4.53321 11.7464H1.4624V14.1278C2.97483 17.1318 6.08323 19.1915 9.67629 19.1915Z" fill="#34A853"/>
<path fill-rule="evenodd" clip-rule="evenodd" d="M4.53331 11.7464C4.34948 11.1949 4.24503 10.6058 4.24503 9.99996C4.24503 9.39416 4.34948 8.80507 4.53331 8.25357V5.87213H1.46251C0.839991 7.11299 0.484863 8.51679 0.484863 9.99996C0.484863 11.4831 0.839991 12.8869 1.46251 14.1278L4.53331 11.7464Z" fill="#FBBC05"/>
<path fill-rule="evenodd" clip-rule="evenodd" d="M9.67629 4.46419C11.0258 4.46419 12.2374 4.92795 13.19 5.83875L15.8263 3.20245C14.2344 1.71927 12.1538 0.808472 9.67629 0.808472C6.08323 0.808472 2.97483 2.86821 1.4624 5.87217L4.53321 8.25361C5.256 6.08107 7.28231 4.46419 9.67629 4.46419Z" fill="#EA4335"/>
</svg>
