<svg width="20" height="20" viewBox="0 0 20 20" fill="none" xmlns="http://www.w3.org/2000/svg">
<path fill-rule="evenodd" clip-rule="evenodd" d="M1.71597 1.71597C2.95734 0.474606 4.81491 0 7.2093 0H12.7907C15.1851 0 17.0427 0.474606 18.284 1.71597C19.5254 2.95734 20 4.81491 20 7.2093V12.7907C20 14.6052 19.7289 16.1062 19.0605 17.2677C18.3776 18.4546 17.3217 19.2155 15.9135 19.6168L15.9097 19.6179C15.0066 19.8847 13.9678 20 12.791 20H7.20965C6.03796 20 5.00301 19.8857 4.10265 19.6213L4.09834 19.6201C2.68421 19.2198 1.62431 18.458 0.939466 17.2677C0.271142 16.1062 0 14.6052 0 12.7907V7.2093C0 4.81491 0.474606 2.95734 1.71597 1.71597ZM14.9097 18.4266C14.4273 16.7279 12.5032 15.3209 10 15.3209L9.97737 15.3209C7.4854 15.3295 5.57158 16.7331 5.09063 18.4265C5.69839 18.5454 6.39998 18.6047 7.20965 18.6047H12.791C13.6006 18.6047 14.3021 18.5454 14.9097 18.4266ZM17.8511 16.5718C17.4854 17.2073 16.969 17.6839 16.2468 18.0142C15.565 15.6273 13.0044 13.9776 10.1368 13.9268C10.0914 13.926 10.0459 13.9256 10.0003 13.9256H10C7.07745 13.9256 4.44603 15.5896 3.75354 18.0144C3.03111 17.684 2.51462 17.2074 2.14891 16.5718C1.65444 15.7124 1.39535 14.4924 1.39535 12.7907V7.2093C1.39535 4.95253 1.85098 3.55429 2.70263 2.70263C3.55429 1.85098 4.95253 1.39535 7.2093 1.39535H12.7907C15.0475 1.39535 16.4457 1.85098 17.2974 2.70263C18.149 3.55429 18.6047 4.95253 18.6047 7.2093V12.7907C18.6047 14.4924 18.3456 15.7124 17.8511 16.5718ZM9.71782 6.06138C8.39453 6.20168 7.36744 7.31788 7.36744 8.67909C7.36744 10.047 8.40326 11.172 9.73082 11.3073C9.81931 11.3163 9.90906 11.3209 9.99993 11.3209C11.454 11.3209 12.6325 10.1382 12.6325 8.67909C12.6325 7.22254 11.4565 6.04651 9.99993 6.04651C9.98857 6.04651 9.97723 6.04658 9.96591 6.04673C9.8822 6.04778 9.79945 6.05272 9.71782 6.06138ZM9.99993 4.65116C9.87816 4.65117 9.75765 4.65655 9.63865 4.6671L9.99993 4.65116ZM9.63865 4.6671C7.58122 4.84936 5.97202 6.57369 5.97202 8.67909C5.97202 10.7647 7.55252 12.4881 9.58732 12.6954C9.7145 12.7083 9.84344 12.7154 9.97389 12.7162C9.98256 12.7162 9.99124 12.7163 9.99993 12.7163C12.2296 12.7163 14.0278 10.9037 14.0278 8.67909C14.0278 6.59326 12.4484 4.88145 10.4185 4.67256M10.4185 4.67256C10.2809 4.65841 10.1413 4.65116 10 4.65116L10.4185 4.67256Z" fill="#25131A" fill-opacity="0.2"/>
</svg>
