<svg width="20" height="20" viewBox="0 0 20 20" fill="none" xmlns="http://www.w3.org/2000/svg">
<path fill-rule="evenodd" clip-rule="evenodd" d="M6.07647 2.84802C5.43299 3.64686 5.20134 4.81569 5.20134 6.30234V7.40376C5.25947 7.40331 5.31801 7.4031 5.37695 7.4031H14.6309C14.6896 7.4031 14.748 7.40331 14.806 7.40376V6.30234C14.806 4.81569 14.5744 3.64686 13.9309 2.84802C13.3156 2.08421 12.1888 1.5 10.0037 1.5C7.81856 1.5 6.69174 2.08421 6.07647 2.84802ZM16.306 7.48839V6.30234C16.306 4.72595 16.075 3.11861 15.099 1.90704C14.0949 0.660439 12.4455 0 10.0037 0C7.56184 0 5.91249 0.660439 4.90833 1.90704C3.93238 3.11861 3.70134 4.72595 3.70134 6.30234V7.48845C2.63892 7.6182 1.77358 7.91964 1.14506 8.54816C0.212512 9.48071 0 10.9346 0 12.78V14.6308C0 16.4762 0.212512 17.9302 1.14506 18.8627C2.07761 19.7953 3.53153 20.0078 5.37695 20.0078H14.6309C16.4763 20.0078 17.9302 19.7953 18.8627 18.8627C19.7953 17.9302 20.0078 16.4762 20.0078 14.6308V12.78C20.0078 10.9346 19.7953 9.48071 18.8627 8.54816C18.2341 7.91955 17.3686 7.61811 16.306 7.48839ZM10.0037 12.142C9.14024 12.142 8.44025 12.842 8.44025 13.7055C8.44025 14.569 9.14024 15.269 10.0037 15.269C10.8672 15.269 11.5672 14.569 11.5672 13.7055C11.5672 12.842 10.8672 12.142 10.0037 12.142ZM6.94025 13.7055C6.94025 12.0136 8.31181 10.642 10.0037 10.642C11.6956 10.642 13.0672 12.0136 13.0672 13.7055C13.0672 15.3974 11.6956 16.769 10.0037 16.769C8.31181 16.769 6.94025 15.3974 6.94025 13.7055ZM1.5 12.78C1.5 10.9239 1.75018 10.0644 2.20572 9.60882C2.66126 9.15328 3.52081 8.9031 5.37695 8.9031H14.6309C16.487 8.9031 17.3465 9.15328 17.8021 9.60882C18.2576 10.0644 18.5078 10.9239 18.5078 12.78V14.6308C18.5078 16.487 18.2576 17.3465 17.8021 17.8021C17.3465 18.2576 16.487 18.5078 14.6309 18.5078H5.37695C3.52081 18.5078 2.66126 18.2576 2.20572 17.8021C1.75018 17.3465 1.5 16.487 1.5 14.6308V12.78Z" fill="#25131A" fill-opacity="0.2"/>
</svg>
