<svg width="24" height="24" viewBox="0 0 24 24" fill="none" xmlns="http://www.w3.org/2000/svg">
<path fill-rule="evenodd" clip-rule="evenodd" d="M3.71597 3.71597C4.95734 2.47461 6.81491 2 9.2093 2H14.7907C17.1851 2 19.0427 2.47461 20.284 3.71597C21.5254 4.95734 22 6.81491 22 9.2093V14.7907C22 16.6052 21.7289 18.1062 21.0605 19.2677C20.3776 20.4546 19.3217 21.2155 17.9135 21.6168L17.9097 21.6179C17.0066 21.8847 15.9678 22 14.791 22H9.20965C8.03796 22 7.00301 21.8857 6.10265 21.6213L6.09834 21.6201C4.68421 21.2198 3.62431 20.458 2.93947 19.2677C2.27114 18.1062 2 16.6052 2 14.7907V9.2093C2 6.81491 2.47461 4.95734 3.71597 3.71597ZM16.9097 20.4266C16.4273 18.7279 14.5032 17.3209 12 17.3209L11.9774 17.3209C9.4854 17.3295 7.57158 18.7331 7.09063 20.4265C7.69839 20.5454 8.39998 20.6047 9.20965 20.6047H14.791C15.6006 20.6047 16.3021 20.5454 16.9097 20.4266ZM19.8511 18.5718C19.4854 19.2073 18.969 19.6839 18.2468 20.0142C17.565 17.6273 15.0044 15.9776 12.1368 15.9268C12.0914 15.926 12.0459 15.9256 12.0003 15.9256H12C9.07745 15.9256 6.44603 17.5896 5.75354 20.0144C5.03111 19.684 4.51462 19.2074 4.14891 18.5718C3.65444 17.7124 3.39535 16.4924 3.39535 14.7907V9.2093C3.39535 6.95253 3.85098 5.55429 4.70263 4.70263C5.55429 3.85098 6.95253 3.39535 9.2093 3.39535H14.7907C17.0475 3.39535 18.4457 3.85098 19.2974 4.70263C20.149 5.55429 20.6047 6.95253 20.6047 9.2093V14.7907C20.6047 16.4924 20.3456 17.7124 19.8511 18.5718ZM11.7178 8.06138C10.3945 8.20168 9.36744 9.31788 9.36744 10.6791C9.36744 12.047 10.4033 13.172 11.7308 13.3073C11.8193 13.3163 11.9091 13.3209 11.9999 13.3209C13.454 13.3209 14.6325 12.1382 14.6325 10.6791C14.6325 9.22254 13.4565 8.04651 11.9999 8.04651C11.9886 8.04651 11.9772 8.04658 11.9659 8.04673C11.8822 8.04778 11.7994 8.05272 11.7178 8.06138ZM11.9999 6.65116C11.8782 6.65117 11.7577 6.65655 11.6387 6.6671L11.9999 6.65116ZM11.6387 6.6671C9.58122 6.84936 7.97202 8.57369 7.97202 10.6791C7.97202 12.7647 9.55252 14.4881 11.5873 14.6954C11.7145 14.7083 11.8434 14.7154 11.9739 14.7162C11.9826 14.7162 11.9912 14.7163 11.9999 14.7163C14.2296 14.7163 16.0278 12.9037 16.0278 10.6791C16.0278 8.59326 14.4484 6.88145 12.4185 6.67256M12.4185 6.67256C12.2809 6.65841 12.1413 6.65116 12 6.65116L12.4185 6.67256Z" fill="#25131A" fill-opacity="0.2"/>
</svg>
