<svg width="24" height="24" viewBox="0 0 24 24" fill="none" xmlns="http://www.w3.org/2000/svg">
<path fill-rule="evenodd" clip-rule="evenodd" d="M8.07647 4.84802C7.43299 5.64686 7.20134 6.81569 7.20134 8.30234V9.40376C7.25947 9.40331 7.31801 9.4031 7.37695 9.4031H16.6309C16.6896 9.4031 16.748 9.40331 16.806 9.40376V8.30234C16.806 6.81569 16.5744 5.64686 15.9309 4.84802C15.3156 4.08421 14.1888 3.5 12.0037 3.5C9.81856 3.5 8.69174 4.08421 8.07647 4.84802ZM18.306 9.48839V8.30234C18.306 6.72595 18.075 5.11861 17.099 3.90704C16.0949 2.66044 14.4455 2 12.0037 2C9.56184 2 7.91249 2.66044 6.90833 3.90704C5.93238 5.11861 5.70134 6.72595 5.70134 8.30234V9.48845C4.63892 9.6182 3.77358 9.91964 3.14506 10.5482C2.21251 11.4807 2 12.9346 2 14.78V16.6308C2 18.4762 2.21251 19.9302 3.14506 20.8627C4.07761 21.7953 5.53153 22.0078 7.37695 22.0078H16.6309C18.4763 22.0078 19.9302 21.7953 20.8627 20.8627C21.7953 19.9302 22.0078 18.4762 22.0078 16.6308V14.78C22.0078 12.9346 21.7953 11.4807 20.8627 10.5482C20.2341 9.91955 19.3686 9.61811 18.306 9.48839ZM12.0037 14.142C11.1402 14.142 10.4402 14.842 10.4402 15.7055C10.4402 16.569 11.1402 17.269 12.0037 17.269C12.8672 17.269 13.5672 16.569 13.5672 15.7055C13.5672 14.842 12.8672 14.142 12.0037 14.142ZM8.94025 15.7055C8.94025 14.0136 10.3118 12.642 12.0037 12.642C13.6956 12.642 15.0672 14.0136 15.0672 15.7055C15.0672 17.3974 13.6956 18.769 12.0037 18.769C10.3118 18.769 8.94025 17.3974 8.94025 15.7055ZM3.5 14.78C3.5 12.9239 3.75018 12.0644 4.20572 11.6088C4.66126 11.1533 5.52081 10.9031 7.37695 10.9031H16.6309C18.487 10.9031 19.3465 11.1533 19.8021 11.6088C20.2576 12.0644 20.5078 12.9239 20.5078 14.78V16.6308C20.5078 18.487 20.2576 19.3465 19.8021 19.8021C19.3465 20.2576 18.487 20.5078 16.6309 20.5078H7.37695C5.52081 20.5078 4.66126 20.2576 4.20572 19.8021C3.75018 19.3465 3.5 18.487 3.5 16.6308V14.78Z" fill="#25131A" fill-opacity="0.2"/>
</svg>
