<svg width="22" height="22" viewBox="0 0 22 22" fill="none" xmlns="http://www.w3.org/2000/svg">
<path fill-rule="evenodd" clip-rule="evenodd" d="M21.5306 1.53033C21.8235 1.23744 21.8235 0.762563 21.5306 0.46967C21.2377 0.176777 20.7628 0.176777 20.4699 0.46967L16.9809 3.95873C15.183 2.68496 13.1336 1.97998 10.9998 1.97998C7.15186 1.97998 3.64826 4.24858 1.25734 8.00695C0.712142 8.86136 0.464844 9.95594 0.464844 11.005C0.464844 12.054 0.712133 13.1486 1.25731 14.003C2.01266 15.1886 2.88584 16.2323 3.84009 17.0993L0.46967 20.4697C0.176777 20.7626 0.176777 21.2375 0.46967 21.5304C0.762563 21.8233 1.23744 21.8233 1.53033 21.5304L9.00033 14.0604L9.00849 14.0521L14.0463 9.01427C14.0511 9.0097 14.0559 9.00505 14.0606 9.00033L21.5306 1.53033ZM13.4845 7.45515L15.9026 5.03697C14.3877 4.01892 12.7128 3.47998 10.9998 3.47998C7.78799 3.47998 4.71174 5.37118 2.52266 8.81252L2.52204 8.81351C2.16745 9.36902 1.96484 10.1642 1.96484 11.005C1.96484 11.8457 2.16745 12.6409 2.52204 13.1965L2.52238 13.197C3.22599 14.3014 4.03331 15.2574 4.90212 16.0372L7.45499 13.4844C6.96041 12.7816 6.66992 11.9266 6.66992 11C6.66992 8.60577 8.60571 6.66998 10.9999 6.66998C11.9266 6.66998 12.7817 6.96051 13.4845 7.45515ZM8.16992 11C8.16992 9.4342 9.43414 8.16998 10.9999 8.16998C11.5103 8.16998 11.9864 8.30391 12.399 8.54027L8.54021 12.399C8.30385 11.9865 8.16992 11.5104 8.16992 11ZM18.58 6.34561C18.9028 6.086 19.3749 6.13719 19.6345 6.45995C20.0184 6.93722 20.3955 7.45007 20.7434 7.99815C21.288 8.85239 21.5351 9.94645 21.5351 10.995C21.5351 12.0441 21.2878 13.1386 20.7426 13.9931C18.3517 17.7514 14.8481 20.02 11.0001 20.02C9.66358 20.02 8.35494 19.7374 7.12907 19.2212C6.74732 19.0605 6.56815 18.6207 6.72889 18.239C6.88963 17.8572 7.32941 17.6781 7.71116 17.8388C8.76529 18.2826 9.87665 18.52 11.0001 18.52C14.212 18.52 17.2882 16.6288 19.4773 13.1875L19.4779 13.1865C19.8325 12.631 20.0351 11.8358 20.0351 10.995C20.0351 10.1543 19.8325 9.35906 19.4779 8.80354L19.4769 8.80189C19.1647 8.30997 18.8218 7.84282 18.4657 7.40009C18.2061 7.07733 18.2573 6.60522 18.58 6.34561ZM15.2472 11.836C15.3223 11.4287 15.0529 11.0376 14.6456 10.9625C14.2382 10.8873 13.8471 11.1567 13.772 11.564C13.5684 12.6682 12.6577 13.5789 11.5536 13.7825C11.1462 13.8576 10.8769 14.2487 10.952 14.656C11.0271 15.0634 11.4182 15.3327 11.8256 15.2576C13.5414 14.9412 14.9308 13.5519 15.2472 11.836Z" fill="#25131A" fill-opacity="0.2"/>
</svg>
